<?xml version="1.0" encoding="utf-8"?>
<!-- Generator: Adobe Illustrator 15.0.0, SVG Export Plug-In . SVG Version: 6.00 Build 0)  -->
<!DOCTYPE svg PUBLIC "-//W3C//DTD SVG 1.1//EN" "http://www.w3.org/Graphics/SVG/1.1/DTD/svg11.dtd">
<svg version="1.1" id="Calque_1" xmlns="http://www.w3.org/2000/svg" xmlns:xlink="http://www.w3.org/1999/xlink" x="0px" y="0px"
	 width="283.46px" height="283.46px" viewBox="0 0 283.46 283.46" enable-background="new 0 0 283.46 283.46" xml:space="preserve">
<path fill="#1E2957" d="M283.46,271.46c0,6.627-5.373,12-12,12H12c-6.627,0-12-5.373-12-12V12C0,5.373,5.373,0,12,0h259.46
	c6.627,0,12,5.373,12,12V271.46z"/>
<g>
	<path fill="#F5D7D3" d="M22.36,81.858l44.979,77.833l44.904-77.833h7.708l-0.3,0.524v119.22h-6.735V94.058l-45.578,78.88
		l-45.652-78.88v107.545h-6.735V82.383l-0.3-0.524H22.36z"/>
	<path fill="#F5D7D3" d="M147.455,191.199c1.321,1.297,1.983,2.87,1.983,4.717c0,1.894-0.662,3.49-1.983,4.787
		c-1.321,1.299-2.906,1.946-4.752,1.946c-1.846,0-3.43-0.647-4.753-1.946c-1.322-1.297-1.983-2.894-1.983-4.787
		c0-1.847,0.662-3.42,1.983-4.717c1.323-1.297,2.907-1.946,4.753-1.946C144.549,189.253,146.134,189.902,147.455,191.199z"/>
	<path fill="#F5D7D3" d="M268.357,186.71c-11.374,10.876-24.971,16.313-40.786,16.313c-16.964,0-31.42-5.974-43.37-17.924
		c-11.949-11.949-17.924-26.406-17.924-43.369c0-16.915,5.975-31.358,17.924-43.333c11.95-11.975,26.406-17.961,43.37-17.961
		c15.815,0,29.562,5.313,41.237,15.941l-5.091,4.64c-10.277-9.131-22.327-13.696-36.146-13.696
		c-15.018,0-27.841,5.313-38.468,15.941c-10.626,10.627-15.939,23.45-15.939,38.468c0,15.067,5.313,27.914,15.939,38.543
		c10.627,10.627,23.45,15.94,38.468,15.94c12.872,0,24.225-3.967,34.052-11.898v-36.524h6.734V186.71z"/>
</g>
</svg>
