<?xml version="1.0" encoding="utf-8"?>
<!-- Generator: Adobe Illustrator 15.0.0, SVG Export Plug-In . SVG Version: 6.00 Build 0)  -->
<!DOCTYPE svg PUBLIC "-//W3C//DTD SVG 1.1//EN" "http://www.w3.org/Graphics/SVG/1.1/DTD/svg11.dtd">
<svg version="1.1" id="Calque_1" xmlns="http://www.w3.org/2000/svg" xmlns:xlink="http://www.w3.org/1999/xlink" x="0px" y="0px"
	 width="126px" height="126.001px" viewBox="0 0 126 126.001" enable-background="new 0 0 126 126.001" xml:space="preserve">
<g>
	<path fill="#941B1F" d="M66.746,25.304c1.042,1.022,1.563,2.261,1.563,3.717c0,1.494-0.521,2.753-1.563,3.775
		C65.704,33.819,64.455,34.33,63,34.33s-2.704-0.511-3.746-1.534c-1.042-1.022-1.563-2.281-1.563-3.775
		c0-1.456,0.521-2.694,1.563-3.717c1.042-1.022,2.291-1.534,3.746-1.534S65.704,24.282,66.746,25.304z M65.655,44.3v57.93h-5.31
		V44.3H65.655z"/>
</g>
<path fill="#941B1F" d="M63,126.001C28.262,126.001,0,97.739,0,63C0,28.262,28.262,0,63,0c34.739,0,63,28.262,63,63
	C126,97.739,97.739,126.001,63,126.001z M63,11c-28.673,0-52,23.327-52,52c0,28.673,23.327,52.001,52,52.001
	c28.673,0,52-23.328,52-52.001C115,34.327,91.673,11,63,11z"/>
</svg>
